<svg width="24" height="24" viewBox="0 0 24 24" fill="none" xmlns="http://www.w3.org/2000/svg">
<path d="M13.3945 5.47035C12.9367 5.42083 12.4715 5.39245 12 5.38539C9.9395 5.39453 7.80354 5.89573 5.78174 6.85611C4.28058 7.59855 2.81828 8.64669 1.54834 9.93959C0.92464 10.5996 0.12862 11.5552 0 12.5748C0.0152 13.4581 0.96306 14.5482 1.54834 15.2101C2.7392 16.4522 4.16342 17.4704 5.78174 18.2936C5.83674 18.3203 5.89194 18.3467 5.94726 18.3727L4.44582 20.9947L6.48592 22.2005L17.5142 2.99978L15.5505 1.79962L13.3945 5.47035ZM18.0513 6.77993L16.5527 9.37707C17.2421 10.2727 17.6514 11.3772 17.6514 12.5748C17.6514 15.56 15.1209 17.9801 11.9985 17.9801C11.8635 17.9801 11.7327 17.9656 11.6001 17.9567L10.6084 19.6735C11.0657 19.7225 11.5282 19.7581 12 19.7643C14.0624 19.755 16.1972 19.2481 18.2168 18.2936C19.7179 17.5512 21.1817 16.503 22.4516 15.2101C23.0754 14.5501 23.8713 13.5945 24 12.5748C23.9848 11.6916 23.0369 10.6015 22.4516 9.93957C21.2608 8.69745 19.8351 7.67931 18.2168 6.85607C18.1622 6.82959 18.1062 6.80577 18.0513 6.77993ZM11.9985 7.16959C12.1355 7.16959 12.2713 7.17507 12.4058 7.18423L11.2441 9.19545C9.61386 9.52597 8.39062 10.9131 8.39062 12.5734C8.39062 12.9905 8.46744 13.3898 8.60888 13.7599C8.60904 13.7603 8.60872 13.761 8.60888 13.7614L7.44432 15.7785C6.7533 14.882 6.34568 13.7739 6.34568 12.5748C6.3457 9.58971 8.87616 7.16957 11.9985 7.16959ZM15.3779 11.4103L12.7603 15.9455C14.3818 15.6087 15.5962 14.228 15.5962 12.5734C15.5962 12.1639 15.5145 11.7746 15.3779 11.4103Z" fill="black"/>
</svg>
