<svg width="148" height="43" viewBox="0 0 148 43" fill="none" xmlns="http://www.w3.org/2000/svg">
<path d="M33.266 28.255L0.5 21.1026L33.266 14.4801L43.6915 21.1026L33.266 28.255Z" fill="white"/>
<path d="M12.4149 8.91722H33.266H43.6915L33.266 1.5L12.4149 8.91722Z" fill="white"/>
<path d="M43.6915 33.8179H33.266H12.4149L33.266 41.5L43.6915 33.8179Z" fill="white"/>
<path d="M46.0745 20.8377L33.5638 11.3013H46.0745H56.5L46.0745 21.1026L56.5 31.9636H46.0745L33.5638 31.9636L46.0745 21.6325V31.9636H56.5L46.0745 21.1026L56.5 11.3013H46.0745V20.8377Z" fill="white"/>
<path d="M46.0745 11.3013V20.8377L33.5638 11.3013H46.0745ZM46.0745 11.3013H56.5L46.0745 21.1026L56.5 31.9636H46.0745M46.0745 31.9636L33.5638 31.9636L46.0745 21.6325V31.9636ZM0.5 21.1026L33.266 28.255L43.6915 21.1026L33.266 14.4801L0.5 21.1026ZM33.266 8.91722H12.4149L33.266 1.5L43.6915 8.91722H33.266ZM33.266 33.8179H43.6915L33.266 41.5L12.4149 33.8179H33.266Z" stroke="white"/>
<path d="M71.872 30V28.336L74.624 27.888C74.9867 27.824 75.168 27.6213 75.168 27.28V13.456H74.176C73.8773 13.456 73.5787 13.4773 73.28 13.52C73.0027 13.5413 72.768 13.5947 72.576 13.68C72.2773 13.808 72.096 14.0213 72.032 14.32L71.04 18.32H68.896C68.768 17.1253 68.6827 16.016 68.64 14.992C68.6187 13.968 68.672 12.8587 68.8 11.664H85.92C86.048 12.8587 86.0907 13.9787 86.048 15.024C86.0267 16.048 85.9627 17.1467 85.856 18.32H83.712L82.656 14.288C82.6347 14.1387 82.5813 14.0213 82.496 13.936C82.4107 13.8293 82.2827 13.744 82.112 13.68C81.7067 13.5307 81.1733 13.456 80.512 13.456H79.584V27.28C79.584 27.6213 79.7653 27.824 80.128 27.888L82.848 28.336V30H71.872ZM92.7348 20.304C93.1188 19.4507 93.5454 18.7147 94.0148 18.096C94.5054 17.456 95.0281 16.9653 95.5828 16.624C96.1588 16.2827 96.7561 16.112 97.3748 16.112C97.6308 16.112 97.9508 16.1547 98.3348 16.24C98.7188 16.304 99.0174 16.3893 99.2308 16.496C99.3161 17.1573 99.3268 17.9573 99.2628 18.896C99.1988 19.8347 99.0708 20.7413 98.8788 21.616H97.0548L96.6388 20.272C96.5534 19.9733 96.4361 19.7813 96.2868 19.696C96.1588 19.6107 95.9561 19.568 95.6788 19.568C95.3374 19.568 94.9321 19.664 94.4628 19.856C93.9934 20.048 93.5454 20.3893 93.1188 20.88L92.7348 20.304ZM93.6628 20.24V27.44C93.6628 27.824 93.8548 28.048 94.2388 28.112L96.1908 28.336V30H87.6468V28.336L88.8948 28.112C89.2574 28.048 89.4388 27.824 89.4388 27.44V19.504C89.4388 19.12 89.2681 18.896 88.9268 18.832L87.5188 18.544V16.816C88.2654 16.6027 89.0654 16.4427 89.9188 16.336C90.7934 16.2293 91.5934 16.1653 92.3188 16.144L92.9908 16.656L93.6628 20.24ZM106.788 27.44C106.788 27.824 106.969 28.048 107.332 28.112L108.58 28.336V30H100.772V28.336L102.02 28.112C102.382 28.048 102.564 27.824 102.564 27.44V19.536C102.564 19.152 102.393 18.928 102.052 18.864L100.644 18.576V16.848C101.476 16.6133 102.404 16.4427 103.428 16.336C104.452 16.2293 105.38 16.176 106.212 16.176L106.788 16.688V27.44ZM106.756 12.496C106.756 13.136 106.542 13.648 106.116 14.032C105.71 14.416 105.166 14.608 104.484 14.608C103.78 14.608 103.214 14.416 102.788 14.032C102.382 13.648 102.18 13.136 102.18 12.496C102.18 11.856 102.382 11.3547 102.788 10.992C103.214 10.608 103.78 10.416 104.484 10.416C105.166 10.416 105.71 10.608 106.116 10.992C106.542 11.3547 106.756 11.856 106.756 12.496ZM110.372 29.296C110.287 28.6773 110.255 28.0373 110.276 27.376C110.298 26.7147 110.351 26.0853 110.436 25.488H112.548L113.028 27.216C113.135 27.6427 113.316 27.952 113.572 28.144C113.743 28.2507 113.978 28.368 114.276 28.496C114.575 28.624 114.927 28.688 115.332 28.688C115.908 28.688 116.346 28.528 116.644 28.208C116.964 27.888 117.124 27.5147 117.124 27.088C117.124 26.6613 116.964 26.3093 116.644 26.032C116.324 25.7547 115.898 25.488 115.364 25.232C114.831 24.976 114.234 24.688 113.572 24.368C112.634 23.8773 111.866 23.3333 111.268 22.736C110.692 22.1387 110.404 21.328 110.404 20.304C110.404 19.088 110.852 18.096 111.748 17.328C112.644 16.5387 114.031 16.144 115.908 16.144C116.676 16.144 117.476 16.2187 118.308 16.368C119.162 16.5173 119.887 16.7093 120.484 16.944C120.527 17.4987 120.527 18.096 120.484 18.736C120.463 19.376 120.399 19.984 120.292 20.56H118.34L117.828 18.928C117.764 18.6933 117.69 18.5227 117.604 18.416C117.54 18.288 117.423 18.1813 117.252 18.096C117.039 17.968 116.815 17.872 116.58 17.808C116.367 17.744 116.143 17.712 115.908 17.712C115.439 17.712 115.055 17.8507 114.756 18.128C114.458 18.384 114.308 18.7467 114.308 19.216C114.308 19.6213 114.436 19.9627 114.692 20.24C114.948 20.5173 115.279 20.7627 115.684 20.976C116.111 21.1893 116.57 21.4027 117.06 21.616C117.807 21.936 118.5 22.288 119.14 22.672C119.802 23.0347 120.324 23.4933 120.708 24.048C121.114 24.5813 121.316 25.2747 121.316 26.128C121.316 27.5147 120.762 28.56 119.652 29.264C118.543 29.968 117.146 30.32 115.46 30.32C114.479 30.32 113.551 30.2133 112.676 30C111.802 29.7867 111.034 29.552 110.372 29.296ZM132.012 23.408C132.012 22.064 131.948 20.9867 131.82 20.176C131.692 19.3653 131.457 18.7893 131.116 18.448C130.796 18.0853 130.348 17.904 129.772 17.904C129.068 17.904 128.534 18.2773 128.172 19.024C127.83 19.7707 127.66 21.1147 127.66 23.056C127.66 24.4 127.724 25.4773 127.852 26.288C128.001 27.0987 128.236 27.6853 128.556 28.048C128.876 28.4107 129.324 28.592 129.9 28.592C130.604 28.592 131.126 28.2187 131.468 27.472C131.83 26.704 132.012 25.3493 132.012 23.408ZM123.116 23.376C123.116 21.6053 123.414 20.1973 124.012 19.152C124.63 18.0853 125.462 17.3173 126.508 16.848C127.553 16.3787 128.726 16.144 130.028 16.144C131.393 16.144 132.556 16.4 133.516 16.912C134.476 17.4027 135.212 18.16 135.724 19.184C136.257 20.208 136.524 21.5093 136.524 23.088C136.524 24.88 136.225 26.3093 135.628 27.376C135.03 28.4213 134.209 29.1787 133.164 29.648C132.14 30.096 130.966 30.32 129.644 30.32C128.3 30.32 127.137 30.0747 126.156 29.584C125.174 29.072 124.417 28.304 123.884 27.28C123.372 26.256 123.116 24.9547 123.116 23.376ZM144.125 27.44C144.125 27.824 144.306 28.048 144.669 28.112L146.077 28.336V30H137.981V28.336L139.389 28.112C139.751 28.048 139.933 27.8347 139.933 27.472V12.336C139.933 11.952 139.751 11.728 139.389 11.664L137.885 11.44V9.808C138.717 9.57333 139.655 9.392 140.701 9.264C141.767 9.136 142.727 9.06133 143.581 9.04L144.125 9.584V27.44Z" fill="white"/>
</svg>
